<?xml version="1.0" standalone="no"?><!DOCTYPE svg PUBLIC "-//W3C//DTD SVG 1.1//EN" "http://www.w3.org/Graphics/SVG/1.1/DTD/svg11.dtd"><svg t="1595911370461" class="icon" viewBox="0 0 1024 1024" version="1.1" xmlns="http://www.w3.org/2000/svg" p-id="871" xmlns:xlink="http://www.w3.org/1999/xlink" width="200" height="200"><defs><style type="text/css"></style></defs><path d="M192.856 945.5c-54.468 0-68.356-37.013-68.356-91.396V406.5h50v456.821c0 17.368 8.389 32.179 33.652 32.179h170.951l70.256 50H192.856z m641.978-50c17.368 0 28.666-11.036 28.666-28.768v-52.396l24.73-28.012-24.73-24.943V235.653c0-17.367-10.935-35.153-28.667-35.153H555.5v-49h290.68c54.469 0 65.32 34.055 65.32 88.437v614.166c0 54.517-10.496 91.396-65.319 91.396h-131.69l74.605-50h45.738zM242.212 320.121c14.812 14.771 38.82 14.771 53.631 0L472.44 143.98c14.807-14.775 34.127-33.516 19.744-53.493-14.812-14.771-27.77-17.158-43.759 0L269.032 269.5 158.968 159.644c-14.218-15.056-26.676-16.916-41.487-2.145-12.11 14.552-3.432 34.733 17.473 55.638l107.258 106.984z" p-id="872"></path><path d="M586.024 913.049c112.08 0 202.928-126.727 202.928-126.727s-90.849-126.728-202.928-126.728-202.929 126.728-202.929 126.728 90.848 126.727 202.929 126.727z m0-194.039c37.278 0 67.395 30.201 67.395 67.395 0 37.194-30.2 67.396-67.395 67.396-37.278 0-67.395-30.201-67.395-67.396-0.001-37.278 30.2-67.395 67.395-67.395z" p-id="873"></path><path d="M586.025 776.987m-31.353 0a31.353 31.353 0 1 0 62.706 0 31.353 31.353 0 1 0-62.706 0Z" p-id="874"></path><path d="M746.389 572.5c13.631 0 24.681-10.869 24.681-24.5s-11.05-24.5-24.681-24.5h-237.92c-13.631 0-24.681 10.869-24.681 24.5s11.05 24.5 24.681 24.5h237.92zM746.389 344.5h-237.92c-13.631 0-24.681 11.369-24.681 25s11.05 25 24.681 25h237.92c13.631 0 24.681-11.369 24.681-25s-11.051-25-24.681-25zM411.24 548c0-13.631-11.05-24.5-24.681-24.5h-93.785c-13.631 0-24.681 10.869-24.681 24.5s11.05 24.5 24.681 24.5h93.785c13.631 0 24.681-10.869 24.681-24.5z" p-id="875"></path></svg>