<?xml version="1.0" standalone="no"?><!DOCTYPE svg PUBLIC "-//W3C//DTD SVG 1.1//EN" "http://www.w3.org/Graphics/SVG/1.1/DTD/svg11.dtd"><svg t="1603155302845" class="icon" viewBox="0 0 1024 1024" version="1.1" xmlns="http://www.w3.org/2000/svg" p-id="3652" xmlns:xlink="http://www.w3.org/1999/xlink" width="200" height="200"><defs><style type="text/css"></style></defs><path d="M269.9 455.6L682.6 90.3c11.8-10.4 29.9-9.3 40.4 2.5 10.4 11.8 9.3 29.9-2.5 40.4L307.8 498.4c-11.8 10.4-29.9 9.3-40.4-2.5-10.4-11.7-9.3-29.9 2.5-40.3z" fill="#1296db" p-id="3653"></path><path d="M720.5 820L307.8 454.8c-11.8-10.4-29.9-9.3-40.4 2.5-10.4 11.8-9.3 29.9 2.5 40.4l412.8 365.2c11.8 10.4 29.9 9.3 40.4-2.5 10.3-11.8 9.2-30-2.6-40.4z" fill="#1296db" p-id="3654"></path></svg>